<svg width="77" height="77" viewBox="0 0 77 77" fill="none" xmlns="http://www.w3.org/2000/svg">
<circle cx="38.3582" cy="38.3581" r="38" transform="rotate(-0.542669 38.3582 38.3581)" fill="#11984B" fill-opacity="0.2"/>
<path d="M51.0509 31.0043L26.4425 31.2373C24.7437 31.2534 23.3795 32.6437 23.3956 34.3425L23.5413 49.7228C23.5574 51.4217 24.9476 52.7858 26.6465 52.7697L51.2549 52.5366C52.9537 52.5205 54.3179 51.1303 54.3018 49.4314L54.1561 34.0512C54.14 32.3523 52.7498 30.9882 51.0509 31.0043Z" stroke="#11984B" stroke-width="3" stroke-linecap="round" stroke-linejoin="round"/>
<path d="M45.1028 52.5949L44.8697 27.9865C44.862 27.1707 44.5305 26.3913 43.9482 25.8199C43.3658 25.2485 42.5804 24.9318 41.7645 24.9396L35.6124 24.9978C34.7966 25.0056 34.0173 25.3371 33.4459 25.9194C32.8745 26.5017 32.5578 27.2872 32.5655 28.103L32.7986 52.7114" stroke="#11984B" stroke-width="3" stroke-linecap="round" stroke-linejoin="round"/>
</svg>
