<svg width="24" height="24" viewBox="0 0 24 24" fill="none" xmlns="http://www.w3.org/2000/svg">
<path d="M5.06 18.39H8.06V9.39H5.06V18.39Z" fill="#E6692E"/>
<path d="M5.45691 7.67309C5.74947 7.96564 6.14626 8.13 6.56 8.13C6.7797 8.15492 7.00218 8.13315 7.21287 8.06612C7.42357 7.99909 7.61774 7.88831 7.78266 7.74104C7.94757 7.59377 8.07953 7.41332 8.16987 7.21152C8.26022 7.00971 8.30692 6.7911 8.30692 6.57C8.30692 6.3489 8.26022 6.13029 8.16987 5.92848C8.07953 5.72668 7.94757 5.54623 7.78266 5.39896C7.61774 5.25169 7.42357 5.14091 7.21287 5.07388C7.00218 5.00685 6.7797 4.98508 6.56 5.01C6.14626 5.01 5.74947 5.17436 5.45691 5.46691C5.16436 5.75947 5 6.15626 5 6.57C5 6.98374 5.16436 7.38053 5.45691 7.67309Z" fill="#E6692E"/>
<path d="M15.88 18.39H18.88V13.21C18.88 10.44 17.43 9.15 15.43 9.15C14.8846 9.12985 14.344 9.25888 13.8664 9.5232C13.3889 9.78752 12.9925 10.1771 12.72 10.65V9.38H9.72V18.38H12.72V13.38C12.7078 13.1326 12.7417 12.885 12.82 12.65C12.9345 12.3327 13.1435 12.0581 13.4188 11.8632C13.6942 11.6683 14.0227 11.5625 14.36 11.56C15.45 11.56 15.88 12.35 15.88 13.56V18.39Z" fill="#E6692E"/>
</svg>
